<!-- Generated by IcoMoon.io -->
<svg version="1.1" xmlns="http://www.w3.org/2000/svg" width="3770" height="1024" viewBox="0 0 3770 1024">
<title></title>
<g id="icomoon-ignore">
</g>
<path fill="#fff" d="M2141.029 678.655l-0.489 44.52c-57.985 42.417-102.114 42.417-167.125 42.417-64.848 0-129.778-35.424-157.442-79.585-27.713-44.112-44.422-129.761 32.929-191.251 80.465-63.984 170.45-50.209 196.403-45.009 26.93 11.248 63.202 22.496 74.45 12.096 0 0 9.536-6.847 9.536-17.296l10.841 1.418v107.542h-17.997c-45.824-115.97-223.985-96.392-223.985 61.751 0 164.158 173.319 132.908 242.879 63.397zM2984.608 452.567h203.021v14.052c-61.278 0-56.078 26.441-56.078 42.319v200.853c0 27.517 13.775 35.945 57.186 35.945v15.617h-205.157v-14.508c38.097 0 58.083-2.168 58.083-41.276v-202.076c0-38.945-47.552-36.874-55.947-36.874zM721.561 452.453h-220.774v17.638c65.076 0 59.371 33.386 59.371 33.386l1.842 198.489c0 29.685 0.082 46.395-61.571 46.395v12.895h330.549l20.752-110.036-24.338-4.972c-11.216 55.719-59.354 87.214-81.606 87.214h-59.403c-14.802 0-29.669-5.575-29.669-29.669v-200.299c0-11.118 0-31.544 63.12-31.544zM1240.198 709.367c11.134 16.693 17.671 35.277 48.367 35.277l-0.114 16.628h-192.93l0.098-14.802c38.961 0 61.213-3.7 40.705-37.103l-22.17-38.961h-113.166s-3.749 9.357-18.6 40.917c-14.835 31.544-7.385 35.146 35.212 35.146v14.802h-126.061v-14.215s24.126 3.097 35.261-20.997l129.712-273.607h28.006s144.563 240.205 155.681 256.914zM1012.138 644.568h83.465l-44.504-78.052zM2913.744 709.367c10.987 16.693 17.59 35.277 48.286 35.277l-0.082 16.628h-192.947l0.065-14.802c39.026 0 61.245-3.7 40.754-37.103l-22.187-38.961h-113.085s-3.847 9.357-18.682 40.917c-14.851 31.544-7.336 35.146 35.228 35.146v14.802h-126.093v-14.215s24.175 3.097 35.277-20.997l129.778-273.607h27.876s144.645 240.205 155.811 256.914zM2685.7 644.568h83.367l-44.487-78.052zM1641.383 496.076c0-25.512-28.821-25.985-47.242-25.985v-12.976h133.445c0 5.559-1.353 11.542-16.171 11.542-14.835 0-30.093 8.836-30.093 27.419v265.179h-18.698l-257.697-222.55v163.261c0 38.505 16.253 43.966 53.241 43.966l-0.408 15.324h-143.927v-15.747c48.367 0 50.111-10.14 50.111-43.542v-207.765c-25.822-18.551-46.232-24.11-46.232-24.11v-12.96h134.489l189.165 166.978zM2460.59 452.453s116.899-4.63 116.899 75.134c0 90.409-83.497 98.788-204.504 98.788v82.976s-13.938 36.157 54.252 36.157v15.764h-200.429v-15.764c36.239 0 52.915-7.874 52.915-36.141v-205.89c0-8.346 0-31.544-52.915-31.544v-19.48zM2372.496 483.051v107.575c100.255 0 103.923-16.318 103.923-59.403 0-51.888-26.017-48.171-103.923-48.171zM3709.005 768.787h-16.628l-350.812-311.672v244.851c0 25.92 27.99 37.103 61.359 37.103l1.761 22.187h-163.31l-1.728-20.344c57.48 0 57.398-25.985 57.398-38.945l0.082-265.277c0-48.253-61.18-44.552-61.18-44.552v-24.11h163.278l267.119 235.575-1.809-178.014c0-35.342-66.821-31.576-66.821-31.576l1.777-25.088h170.76v23.197c-50.111 0-61.262 16.709-61.262 35.309zM277.829 375.444c128.001 0 148.916 68.614 148.916 90.914 0 22.219 11.085 58.441-84.932 94.615 98.756 20.882 107.135 66.755 107.135 100.157s-15.291 100.125-122.426 100.125h-326.522v-15.747c38.977 0 63.56-12.047 63.56-36.141v-272.222c0-38.961-9.716-43.118-63.56-43.118v-18.584zM197.136 416.28v129.386c77.873 0 118.269-25.056 118.269-72.379 0-37.592-40.396-79.259-118.269-57.007zM197.136 586.893v139.673c98.788 15.291 139.135-20.931 139.135-68.19 0-37.592-16.709-86.317-139.135-71.483zM1851.071 14.933h-74.124v15.454h26.588v166.44h-25.186l-6.945 15.438h79.666zM1651.033 237.418h51.807l9.781 14.019v62.924h-37.82v-57.333h-18.16zM1733.569 236.048v22.398h78.362l-48.97 55.915h44.781l53.176-57.333v-20.98zM1884.718 260.566c0-29.457 15.389-28.724 34.951-28.724h83.921c32.163 0 25.235 39.157 12.617 39.157 12.617 8.428 15.405 47.601-16.791 47.601h-81.117c-19.644 1.402-34.967-9.83-34.967-30.81h33.549c0 7.010 5.624 8.444 18.193 8.444 12.552 0 51.758 6.928 51.758-15.095h-36.336v-12.617h36.336c0-15.65-1.402-17.1-53.143-17.1-11.183 0-16.807 3.489-16.807 9.129zM2083.305 267.478v-16.742h96.62v-16.856h-131.603v44.585h93.832c12.585 0 12.471 22.708-0.163 22.708h-97.843s-17.1 21.274 54.268 19.888 90.002-8.787 90.002-32.603c0-18.193-8.493-20.964-29.457-20.964zM1991.021 14.933c99.277 4.238 90.963 89.529 29.425 97.957 25.17 0 51.79 18.193 51.79 46.232 0 60.121-54.611 53.143-190.322 53.143v-197.332zM1944.806 34.56v62.941c43.444 0 55.947-13.987 55.947-29.343 0-15.421-11.134-40.607-55.947-33.598zM1943.469 121.268v74.173c43.362 0 67.114 0 67.114-37.82s-48.954-36.353-67.114-36.353zM69.201 994.011l-42.939-93.474v74.222c0 6.847 0.734 11.036 2.233 12.748 2.005 2.347 5.217 3.505 9.569 3.505h3.929v3h-38.668v-3h3.929c4.727 0 8.020-1.467 10.009-4.336 1.19-1.712 1.809-5.706 1.809-11.917v-72.591c0-4.939-0.554-8.477-1.646-10.645-0.965-1.746-2.436-3.112-4.214-3.922l-0.057-0.023c-2.038-1.092-5.298-1.63-9.83-1.63v-2.983h31.462l40.281 86.888 39.662-86.888h31.462v2.983h-3.88c-4.744 0-8.102 1.435-10.042 4.238-1.206 1.777-1.826 5.754-1.826 11.982v72.591c0 6.847 0.766 11.036 2.315 12.748 2.021 2.347 5.184 3.505 9.553 3.505h3.863v3h-47.177v-3h3.945c4.776 0 8.069-1.467 9.993-4.336 1.19-1.712 1.793-5.706 1.793-11.917v-74.222l-42.873 93.474z"></path>
<path fill="#fff" d="M243.237 956.827h-42.988l-7.548 17.524c-1.875 4.304-2.771 7.515-2.771 9.683 0 1.63 0.799 3.13 2.364 4.45 1.63 1.337 5.119 2.119 10.482 2.527v3h-34.951v-3c4.63-0.848 7.629-1.842 8.982-3.277 2.804-2.559 5.852-7.906 9.276-15.927l39.059-91.42h2.853l38.684 92.414c3.097 7.368 5.95 12.243 8.444 14.443 2.559 2.217 6.097 3.44 10.629 3.766v3h-43.835v-3c4.45-0.212 7.401-0.978 8.95-2.217 1.416-1.050 2.332-2.705 2.364-4.576v-0.005c0-2.429-1.076-6.244-3.26-11.411zM240.955 950.714l-18.845-44.83-19.334 44.83z"></path>
<path fill="#fff" d="M302.2 882.964h30.158l67.913 83.253v-64.049c0-6.847-0.782-11.085-2.299-12.764-2.021-2.282-5.217-3.456-9.569-3.456h-3.863v-2.983h38.651v2.983h-3.912c-4.711 0-8.004 1.435-10.009 4.238-1.223 1.777-1.793 5.754-1.793 11.982v93.653h-2.951l-73.26-89.447v68.386c0 6.847 0.782 11.036 2.25 12.748 2.054 2.347 5.282 3.505 9.602 3.505h3.88v3h-38.651v-3h3.831c4.776 0 8.118-1.467 10.091-4.336 1.239-1.712 1.809-5.706 1.809-11.917v-77.27c-3.211-3.749-5.689-6.276-7.368-7.417-1.63-1.206-4.075-2.299-7.303-3.358-1.844-0.502-3.96-0.79-6.145-0.79-0.379 0-0.756 0.009-1.13 0.026l0.053-0.002zM522.387 885.947v-2.983h39.303v2.983h-4.173c-0.108-0.004-0.236-0.006-0.364-0.006-4.101 0-7.689 2.198-9.65 5.481l-0.028 0.051c-1.174 1.695-1.744 5.624-1.744 11.754v45.058c0 11.15-1.092 19.839-3.326 25.985-2.233 6.081-6.553 11.346-13.041 15.813-6.472 4.369-15.242 6.537-26.376 6.537-12.145 0-21.306-2.087-27.615-6.276-6.108-4.083-10.763-9.917-13.291-16.781l-0.077-0.238c-1.728-4.842-2.608-13.954-2.608-27.289v-43.477c0-6.814-0.945-11.264-2.869-13.433-1.858-2.119-4.891-3.179-9.080-3.179h-4.206v-2.983h48.008v2.983h-4.255c-4.548 0-7.841 1.467-9.83 4.385-1.337 1.891-2.038 6.048-2.038 12.226v48.416c0 4.336 0.375 9.292 1.141 14.851 0.848 5.559 2.266 9.879 4.32 13.025 2.103 3.097 5.086 5.657 8.95 7.645 3.929 2.070 8.738 3.097 14.427 3.097 7.254 0 13.759-1.63 19.48-4.776 5.738-3.13 9.667-7.189 11.721-12.145 2.136-4.907 3.179-13.302 3.179-25.072v-45.042c0-6.896-0.734-11.264-2.282-13.025-2.119-2.38-5.298-3.586-9.488-3.586zM614.622 889.012v43.607h20.214c4.662 0 8.037-1.027 10.156-3.016 2.184-2.038 3.635-6.146 4.369-12.194h3.016v37.592h-3.016c-0.082-4.336-0.652-7.417-1.744-9.488-0.983-1.952-2.509-3.509-4.379-4.505l-0.055-0.027c-1.842-0.978-4.597-1.516-8.33-1.516h-20.247v34.886c0 5.624 0.375 9.325 1.076 11.134 0.741 1.531 1.924 2.75 3.381 3.517l0.042 0.020c2.173 1.242 4.773 1.978 7.545 1.989h4.013v3h-47.666v-3h3.945c4.581 0 7.906-1.386 9.96-4.108 1.337-1.679 2.005-5.934 2.005-12.552v-71.793c0-5.559-0.391-9.308-1.076-11.085-0.708-1.548-1.879-2.782-3.334-3.55l-0.041-0.020c-2.165-1.228-4.755-1.953-7.514-1.956h-3.946v-3h82.617l1.060 24.371h-2.82c-1.435-5.151-3.097-8.999-4.972-11.379-1.8-2.352-4.166-4.184-6.899-5.307l-0.11-0.040c-2.739-1.060-6.977-1.581-12.764-1.581z"></path>
<path fill="#fff" d="M767.108 956.827h-42.988l-7.548 17.524c-1.826 4.304-2.771 7.515-2.771 9.683 0 1.63 0.815 3.13 2.396 4.45 1.63 1.337 5.086 2.119 10.466 2.527v3h-34.983v-3c4.63-0.848 7.645-1.842 8.999-3.277 2.804-2.559 5.901-7.906 9.259-15.927l39.108-91.42h2.853l38.651 92.414c3.13 7.368 5.95 12.243 8.428 14.443 2.559 2.217 6.113 3.44 10.645 3.766v3h-43.819v-3c4.45-0.212 7.385-0.978 8.933-2.217 1.424-1.044 2.343-2.703 2.364-4.578v-0.003c0-2.429-1.076-6.244-3.26-11.411zM764.825 950.714l-18.861-44.83-19.301 44.83z"></path>
<path fill="#fff" d="M929.342 880.388l2.494 37.722h-2.494c-3.407-11.248-8.281-19.383-14.557-24.371-6.276-4.956-13.808-7.482-22.594-7.482-7.368 0-14.036 1.907-19.986 5.706-5.95 3.717-10.645 9.634-14.068 17.85-3.423 8.135-5.102 18.339-5.102 30.533 0 10.058 1.63 18.747 4.842 26.132 3.244 7.336 8.037 13.009 14.508 16.937 6.504 3.929 13.873 5.95 22.187 5.95 0.241 0.005 0.524 0.009 0.809 0.009 6.711 0 13.020-1.718 18.512-4.739l-0.199 0.1c5.494-3.097 11.525-9.292 18.16-18.421l2.527 1.679c-5.575 9.863-12.063 17.1-19.464 21.698-7.466 4.581-16.285 6.847-26.507 6.847-18.388 0-32.652-6.765-42.743-20.459-7.531-10.123-11.33-22.17-11.33-35.88 0-11.134 2.51-21.241 7.482-30.533 4.768-9.061 11.743-16.396 20.229-21.464l0.246-0.136c8.066-4.826 17.794-7.679 28.188-7.679 0.137 0 0.273 0 0.41 0.001h-0.021c8.020 0 15.976 1.94 23.784 5.869 2.282 1.239 3.912 1.809 4.891 1.809 1.467 0 2.771-0.489 3.847-1.581 1.523-1.643 2.602-3.718 3.037-6.021l0.012-0.076zM1054.050 882.964l1.223 26.017h-3.081c-0.603-4.613-1.418-7.825-2.478-9.83-1.504-3.004-3.851-5.398-6.729-6.92l-0.085-0.041c-2.788-1.549-6.488-2.315-11.036-2.315h-15.65v84.883c0 6.847 0.717 11.036 2.184 12.748 2.119 2.347 5.282 3.505 9.618 3.505h3.831v3h-47.112v-3h3.961c4.679 0 8.004-1.467 9.96-4.336 1.223-1.712 1.809-5.706 1.809-11.917v-84.883h-13.335c-5.2 0-8.884 0.424-11.069 1.109-3.049 1.242-5.537 3.337-7.234 5.986l-0.037 0.061c-2.038 2.885-3.26 6.961-3.635 11.949h-3.081l1.304-26.017zM1156.261 885.947v-2.983h39.303v2.983h-4.157c-0.109-0.004-0.237-0.006-0.366-0.006-4.115 0-7.716 2.197-9.696 5.481l-0.028 0.051c-1.141 1.695-1.728 5.624-1.728 11.754v45.058c0 11.15-1.125 19.839-3.342 25.985-2.201 6.081-6.521 11.346-13.025 15.813-6.439 4.369-15.242 6.537-26.36 6.537-12.128 0-21.339-2.087-27.631-6.276-6.093-4.089-10.737-9.922-13.258-16.78l-0.077-0.239c-1.777-4.842-2.641-13.954-2.641-27.289v-43.477c0-6.814-0.945-11.264-2.853-13.433-1.858-2.119-4.891-3.179-9.096-3.179h-4.173v-2.983h48.008v2.983h-4.287c-4.564 0-7.874 1.467-9.814 4.385-1.369 1.891-2.038 6.048-2.038 12.226v48.416c0 4.336 0.391 9.292 1.141 14.851 0.831 5.559 2.282 9.879 4.336 13.025 2.087 3.097 5.037 5.657 8.95 7.645 3.912 2.070 8.721 3.097 14.411 3.097 7.254 0 13.742-1.63 19.48-4.776 5.738-3.13 9.651-7.189 11.737-12.145 2.119-4.907 3.195-13.302 3.195-25.072v-45.042c0-6.896-0.782-11.264-2.282-13.025-2.168-2.38-5.314-3.586-9.536-3.586z"></path>
<path fill="#fff" d="M1327.543 994.011h-29.669l-37.543-51.937c-2.836 0.082-5.102 0.163-6.847 0.163h-2.315c-0.682-0.068-1.558-0.126-2.44-0.16l-0.087-0.003v32.277c0 6.977 0.799 11.264 2.315 12.992 2.070 2.462 5.184 3.668 9.373 3.668h4.271v3h-47.552v-3h4.157c4.695 0 8.069-1.549 10.107-4.679 1.109-1.695 1.679-5.673 1.679-11.982v-71.793c0-6.977-0.766-11.346-2.299-13.025-2.119-2.38-5.298-3.586-9.488-3.586h-4.157v-2.983h40.428c11.819 0 20.508 0.815 26.050 2.608 5.624 1.663 10.4 4.842 14.264 9.455 3.945 4.564 5.901 10.14 5.901 16.497 0 6.798-2.233 12.732-6.716 17.769-4.418 5.037-11.297 8.509-20.638 10.629l22.953 31.886c5.249 7.303 9.716 12.128 13.53 14.508 3.749 2.51 8.64 4.027 14.72 4.695zM1248.643 936.89c1.060 0 1.924 0.049 2.69 0.082h1.924c10.58 0 18.568-2.233 23.898-6.847 5.445-4.613 8.086-10.515 8.086-17.541 0-6.928-2.152-12.569-6.537-16.872-4.304-4.353-10.042-6.586-17.198-6.586-4.646 0.154-9.067 0.711-13.351 1.637l0.489-0.089z"></path>
<path fill="#fff" d="M1377.899 889.012v43.868h24.387c6.358 0 10.58-0.945 12.715-2.836 2.836-2.527 4.401-6.945 4.776-13.253h3v38.602h-3c-0.782-5.38-1.549-8.819-2.331-10.368-1.105-1.974-2.762-3.525-4.761-4.472l-0.065-0.028c-2.217-1.060-5.657-1.646-10.335-1.646h-24.387v36.565c0 4.956 0.212 7.972 0.652 9.031s1.206 1.858 2.299 2.51c1.109 0.636 3.179 0.978 6.227 0.978h18.845c6.276 0 10.792-0.456 13.677-1.369 2.82-0.897 5.543-2.559 8.183-5.135 3.391-3.342 6.863-8.477 10.368-15.275h3.309l-9.585 27.827h-85.6v-3h3.961c2.576 0 5.086-0.668 7.434-1.842 1.645-0.822 2.895-2.23 3.49-3.945l0.015-0.049c0.668-1.761 0.978-5.347 0.978-10.726v-72.2c0-7.059-0.668-11.379-2.103-13.009-1.973-2.233-5.249-3.293-9.814-3.293h-3.961v-2.983h85.6l1.272 24.289h-3.228c-1.157-5.787-2.445-9.846-3.847-12.063-1.479-2.244-3.573-3.976-6.042-4.973l-0.088-0.031c-2.217-0.782-6.048-1.174-11.574-1.174z"></path>
<path fill="#fff" d="M1523.685 994.011v-3h4.173c4.679 0 8.020-1.549 9.993-4.564 1.19-1.809 1.793-5.82 1.793-12.096v-71.793c0-6.896-0.766-11.264-2.282-13.025-2.152-2.38-5.331-3.586-9.504-3.586h-4.19v-2.983h45.221c16.595 0 29.229 1.842 37.869 5.64 8.656 3.766 15.633 10.026 20.866 18.828 5.314 8.77 7.972 18.91 7.972 30.435 0 15.454-4.727 28.414-14.101 38.782-10.547 11.574-26.637 17.361-48.171 17.361zM1555.359 985.925c6.945 1.581 12.781 2.331 17.459 2.331 12.666 0 23.197-4.45 31.56-13.367 8.363-8.836 12.503-20.98 12.503-36.19 0-15.372-4.141-27.436-12.503-36.271-8.363-8.884-19.073-13.302-32.212-13.302-4.923 0-10.498 0.799-16.791 2.396z"></path>
<path fill="#fff" d="M1693.809 889.012v43.868h24.404c6.341 0 10.563-0.945 12.683-2.836 2.836-2.527 4.434-6.945 4.76-13.253h3.065v38.602h-3.065c-0.782-5.38-1.516-8.819-2.299-10.368-1.098-1.974-2.75-3.526-4.745-4.472l-0.064-0.027c-2.233-1.060-5.689-1.646-10.335-1.646h-24.404v36.565c0 4.956 0.228 7.972 0.636 9.031 0.491 1.076 1.292 1.94 2.288 2.496l0.027 0.014c1.076 0.636 3.163 0.978 6.244 0.978h18.812c6.309 0 10.824-0.456 13.693-1.369 2.82-0.897 5.591-2.559 8.183-5.135 3.391-3.342 6.847-8.477 10.384-15.275h3.309l-9.618 27.827h-85.567v-3h3.929c2.608 0 5.119-0.668 7.434-1.842 1.646-0.837 2.905-2.239 3.538-3.944l0.016-0.050c0.636-1.761 0.929-5.347 0.929-10.726v-72.2c0-7.059-0.685-11.379-2.119-13.009-1.956-2.233-5.217-3.293-9.781-3.293h-3.945v-2.983h85.567l1.255 24.289h-3.211c-1.141-5.787-2.429-9.846-3.831-12.063-1.482-2.241-3.575-3.971-6.042-4.973l-0.088-0.032c-2.217-0.782-6.064-1.174-11.574-1.174zM1871.187 934.461h51.611v-31.788c0-5.673-0.293-9.422-1.060-11.199-0.698-1.573-1.9-2.817-3.398-3.551l-0.042-0.019c-2.16-1.228-4.744-1.953-7.498-1.956h-3.897v-2.983h47.568v2.983h-3.978c-0.001 0-0.003 0-0.004 0-2.737 0-5.308 0.707-7.542 1.948l0.079-0.041c-1.675 0.825-2.952 2.245-3.571 3.977l-0.015 0.049c-0.603 1.712-0.864 5.298-0.864 10.775v71.695c0 5.624 0.342 9.325 1.060 11.15 0.698 1.535 1.866 2.756 3.317 3.502l0.041 0.019c2.154 1.25 4.74 1.988 7.499 1.989h3.978v3h-47.568v-3h3.896c4.581 0 7.89-1.386 9.96-4.108 1.386-1.679 2.038-5.934 2.038-12.552v-33.826h-51.611v33.826c0 5.624 0.359 9.325 1.060 11.15 0.745 1.528 1.933 2.743 3.397 3.501l0.043 0.020c2.144 1.249 4.719 1.987 7.466 1.989h4.011v3h-47.552v-3h3.912c4.564 0 7.923-1.386 10.009-4.108 1.272-1.679 1.956-5.934 1.956-12.552v-71.695c0-5.657-0.359-9.406-1.076-11.183-0.705-1.55-1.877-2.785-3.334-3.551l-0.041-0.020c-2.163-1.216-4.745-1.939-7.494-1.956h-3.934v-2.983h47.552v2.983h-4.010c-2.738 0.002-5.31 0.708-7.546 1.948l0.080-0.041c-1.647 0.84-2.899 2.256-3.506 3.977l-0.015 0.050c-0.636 1.712-0.978 5.298-0.978 10.775z"></path>
<path fill="#fff" d="M2051.386 956.827h-42.971l-7.564 17.524c-1.858 4.304-2.755 7.515-2.755 9.683 0 1.63 0.75 3.13 2.347 4.45s5.184 2.119 10.482 2.527v3h-34.934v-3c4.613-0.848 7.613-1.842 8.982-3.277 2.788-2.559 5.852-7.906 9.227-15.927l39.124-91.42h2.836l38.668 92.414c3.146 7.368 5.918 12.243 8.444 14.443 2.559 2.217 6.097 3.44 10.678 3.766v3h-43.851v-3c4.418-0.212 7.434-0.978 8.901-2.217 1.434-1.045 2.371-2.698 2.429-4.572v-0.009c0-2.429-1.109-6.244-3.326-11.411zM2049.169 950.714l-18.943-44.83-19.285 44.83z"></path>
<path fill="#fff" d="M2192.607 885.947v-2.983h39.352v2.983h-4.173c-0.108-0.004-0.236-0.006-0.364-0.006-4.12 0-7.727 2.196-9.715 5.481l-0.028 0.051c-1.141 1.695-1.712 5.624-1.712 11.754v45.058c0 11.15-1.157 19.839-3.326 25.985-2.152 6.081-6.537 11.346-13.107 15.813-6.39 4.369-15.209 6.537-26.327 6.537-12.096 0-21.355-2.087-27.582-6.276-6.117-4.078-10.779-9.913-13.307-16.781l-0.077-0.238c-1.761-4.842-2.657-13.954-2.657-27.289v-43.477c0-6.814-0.962-11.264-2.836-13.433-1.842-2.119-4.842-3.179-9.080-3.179h-4.206v-2.983h48.057v2.983h-4.255c-4.646 0-7.89 1.467-9.863 4.385-1.369 1.891-2.038 6.048-2.038 12.226v48.416c0 4.336 0.408 9.292 1.141 14.851 0.815 5.559 2.25 9.879 4.336 13.025 2.087 3.097 5.037 5.657 8.95 7.645 3.896 2.070 8.705 3.097 14.411 3.097 7.205 0 13.742-1.63 19.513-4.776 5.706-3.13 9.618-7.189 11.737-12.145 2.087-4.907 3.114-13.302 3.114-25.072v-45.042c0-6.896-0.766-11.264-2.233-13.025-2.168-2.38-5.38-3.586-9.52-3.586zM2347.587 882.964l1.206 26.017h-3.065c-0.619-4.613-1.402-7.825-2.429-9.83-1.553-2.98-3.899-5.363-6.761-6.918l-0.086-0.043c-2.771-1.549-6.472-2.315-11.069-2.315h-15.65v84.883c0 6.847 0.766 11.036 2.282 12.748 2.021 2.347 5.217 3.505 9.569 3.505h3.798v3h-47.063v-3h3.863c4.695 0 8.069-1.467 10.074-4.336 1.141-1.712 1.793-5.706 1.793-11.917v-84.883h-13.384c-5.2 0-8.868 0.424-11.069 1.109-3.049 1.242-5.537 3.337-7.234 5.986l-0.037 0.061c-2.087 2.885-3.277 6.961-3.635 11.949h-3.13l1.32-26.017zM2404.839 889.012v43.868h24.436c6.325 0 10.547-0.945 12.634-2.836 2.853-2.527 4.483-6.945 4.793-13.253h3v38.602h-3c-0.75-5.38-1.549-8.819-2.282-10.368-1.127-1.952-2.77-3.495-4.744-4.47l-0.065-0.029c-2.299-1.060-5.706-1.646-10.335-1.646h-24.436v36.565c0 4.956 0.163 7.972 0.701 9.031 0.464 1.079 1.252 1.946 2.24 2.497l0.026 0.013c1.060 0.636 3.195 0.978 6.195 0.978h18.845c6.276 0 10.857-0.456 13.677-1.369 2.82-0.897 5.543-2.559 8.232-5.135 3.391-3.342 6.847-8.477 10.352-15.275h3.26l-9.553 27.827h-85.551v-3h3.929c2.608 0 5.054-0.668 7.434-1.842 1.64-0.834 2.89-2.238 3.506-3.944l0.016-0.050c0.652-1.761 0.945-5.347 0.945-10.726v-72.2c0-7.059-0.668-11.379-2.119-13.009-1.956-2.233-5.217-3.293-9.781-3.293h-3.929v-2.983h85.567l1.239 24.289h-3.179c-1.157-5.787-2.38-9.846-3.88-12.063-1.49-2.24-3.587-3.97-6.057-4.973l-0.088-0.032c-2.184-0.782-6.081-1.174-11.542-1.174zM2585.608 934.461h51.595v-31.788c0-5.673-0.342-9.422-0.962-11.199-0.756-1.549-1.961-2.781-3.445-3.55l-0.043-0.020c-2.137-1.213-4.691-1.936-7.411-1.956h-4v-2.983h47.519v2.983h-3.912c-0.006 0-0.013 0-0.020 0-2.742 0-5.319 0.707-7.559 1.948l0.080-0.041c-1.655 0.841-2.916 2.256-3.538 3.977l-0.016 0.050c-0.636 1.712-0.945 5.298-0.945 10.775v71.695c0 5.624 0.342 9.325 1.109 11.15 0.711 1.513 1.854 2.724 3.27 3.501l0.040 0.020c2.177 1.246 4.784 1.984 7.562 1.989h3.931v3h-47.519v-3h3.994c4.467 0 7.792-1.386 9.895-4.108 1.353-1.679 1.973-5.934 1.973-12.552v-33.826h-51.595v33.826c0 5.624 0.408 9.325 1.060 11.15 0.783 1.521 1.988 2.732 3.46 3.5l0.044 0.021c2.122 1.25 4.675 1.989 7.401 1.989h4.059v3h-47.601v-3h3.912c4.564 0 7.939-1.386 10.026-4.108 1.272-1.679 1.989-5.934 1.989-12.552v-71.695c0-5.657-0.359-9.406-1.125-11.183-0.697-1.532-1.837-2.76-3.254-3.55l-0.039-0.020c-2.189-1.217-4.799-1.94-7.575-1.956h-3.934v-2.983h47.601v2.983h-4.075c-2.71 0.003-5.255 0.71-7.462 1.947l0.077-0.040c-1.653 0.855-2.919 2.263-3.569 3.976l-0.017 0.051c-0.636 1.712-0.978 5.298-0.978 10.775z"></path>
<path fill="#fff" d="M2750.45 880.388c14.378 0 26.898 5.477 37.494 16.481 10.466 10.906 15.78 24.567 15.845 40.901 0 16.937-5.38 30.924-15.943 42.058-10.678 11.183-23.589 16.709-38.749 16.709-15.226 0-28.104-5.445-38.521-16.302-10.417-10.89-15.584-24.925-15.584-42.205 0-17.655 6.015-31.968 18.030-43.151 10.417-9.683 22.904-14.492 37.429-14.492zM2748.869 886.355c-9.911 0-17.916 3.717-23.882 11.053-7.499 9.227-11.216 22.61-11.216 40.281 0 18.16 3.863 32.114 11.607 41.879 5.934 7.417 13.856 11.183 23.572 11.183 10.417 0 19.057-4.108 25.806-12.243 6.847-8.135 10.27-20.948 10.27-38.472 0-18.991-3.749-33.174-11.248-42.547-5.999-7.417-14.345-11.134-24.909-11.134zM2940.398 994.011h-29.653l-37.592-51.937c-2.82 0.082-5.054 0.163-6.765 0.163h-2.347c-0.646-0.063-1.504-0.122-2.368-0.159l-0.11-0.004v32.277c0 6.977 0.701 11.264 2.25 12.992 2.087 2.462 5.233 3.668 9.341 3.668h4.336v3h-47.601v-3h4.206c4.679 0 7.988-1.549 10.058-4.679 1.141-1.695 1.728-5.673 1.728-11.982v-71.793c0-6.977-0.799-11.346-2.299-13.025-2.168-2.38-5.347-3.586-9.504-3.586h-4.19v-2.983h40.444c11.786 0 20.524 0.815 26.083 2.608 5.624 1.663 10.352 4.842 14.248 9.455 3.945 4.564 5.885 10.14 5.885 16.497 0 6.798-2.233 12.732-6.716 17.769-4.434 5.037-11.297 8.509-20.654 10.629l22.953 31.886c5.282 7.303 9.781 12.128 13.53 14.508 3.782 2.51 8.656 4.027 14.737 4.695zM2861.563 936.89c1.011 0 1.907 0.049 2.608 0.082h1.924c10.596 0 18.551-2.233 23.947-6.847s8.053-10.515 8.053-17.541c0-6.928-2.168-12.569-6.504-16.872-4.336-4.353-10.091-6.586-17.198-6.586-3.228 0-7.434 0.538-12.829 1.549z"></path>
<path fill="#fff" d="M3051.901 963.299l2.641 0.538-9.471 30.174h-86.024v-3h4.238c4.564 0 7.988-1.549 9.977-4.679 1.206-1.744 1.777-5.754 1.777-12.063v-71.711c0-6.896-0.766-11.264-2.347-13.025-2.087-2.38-5.217-3.586-9.422-3.586h-4.238v-2.983h50.291v2.983c-5.869-0.033-10.042 0.456-12.422 1.63-2.098 0.89-3.783 2.417-4.848 4.335l-0.026 0.051c-0.831 1.663-1.255 5.869-1.255 12.503v69.804c0 4.532 0.424 7.629 1.255 9.308 0.709 1.138 1.744 2.016 2.974 2.512l0.042 0.015c1.402 0.522 5.754 0.799 12.878 0.799h8.037c8.558 0 14.508-0.571 17.948-1.826 3.489-1.272 6.618-3.472 9.39-6.618 2.853-3.211 5.722-8.314 8.607-15.161z"></path>
<path fill="#fff" d="M3136.327 880.388c14.394 0 26.865 5.477 37.412 16.481 10.563 10.906 15.894 24.567 15.894 40.901 0 16.937-5.38 30.924-15.943 42.058-10.612 11.183-23.605 16.709-38.733 16.709-15.226 0-28.12-5.445-38.521-16.302-10.384-10.89-15.601-24.925-15.601-42.205 0-17.655 5.999-31.968 18.046-43.151 10.417-9.683 22.92-14.492 37.429-14.492zM3134.779 886.355c-9.977 0-17.932 3.717-23.963 11.053-7.466 9.227-11.248 22.61-11.248 40.281 0 18.16 3.912 32.114 11.656 41.879 5.966 7.417 13.856 11.183 23.589 11.183 10.433 0 19.057-4.108 25.822-12.243 6.83-8.135 10.221-20.948 10.221-38.472 0-18.991-3.749-33.174-11.183-42.547-6.032-7.417-14.345-11.134-24.893-11.134z"></path>
<path fill="#fff" d="M3315.858 880.388l2.853 35.065h-2.853c-2.869-8.738-6.667-15.356-11.248-19.741-6.586-6.439-15.079-9.585-25.496-9.585-14.117 0-24.827 5.608-32.245 16.791-6.162 9.455-9.259 20.671-9.259 33.744 0 10.596 2.038 20.279 6.146 29.017 4.124 8.705 9.455 15.161 16.090 19.236 6.618 4.075 13.498 6.097 20.426 6.097 4.108 0 8.086-0.522 11.949-1.549 3.749-1.092 7.482-2.641 11.036-4.646v-32.114c0-5.559-0.408-9.178-1.337-10.857-0.826-1.735-2.171-3.111-3.832-3.955l-0.048-0.022c-1.793-0.897-4.891-1.386-9.422-1.386v-3.13h43.053v3.13h-2.070c-4.238 0-7.156 1.435-8.738 4.304-1.060 1.973-1.663 5.95-1.663 11.917v33.973c-5.321 3.002-11.483 5.567-17.961 7.374l-0.591 0.141c-5.917 1.494-12.709 2.351-19.702 2.351-0.255 0-0.509-0.001-0.763-0.003h0.039c-21.388 0-37.738-6.847-48.921-20.638-7.767-9.421-12.477-21.613-12.477-34.906 0-0.279 0.002-0.558 0.006-0.837v0.042c0-9.846 2.282-19.154 7.026-28.088 5.239-10.314 13.048-18.667 22.603-24.417l0.269-0.15c8.151-4.776 17.736-7.156 28.854-7.156 4.075 0 7.711 0.31 11.004 0.978 3.309 0.619 8.086 2.087 14.068 4.32 3.065 1.157 5.102 1.777 6.162 1.777 1.011 0 1.891-0.538 2.625-1.402 0.75-0.978 1.19-2.885 1.369-5.673zM3385.89 889.012v43.868h24.42c6.325 0 10.449-0.945 12.65-2.836 2.869-2.527 4.467-6.945 4.776-13.253h3.065v38.602h-3.065c-0.766-5.38-1.549-8.819-2.347-10.368-1.083-1.991-2.746-3.55-4.761-4.473l-0.064-0.026c-2.233-1.060-5.673-1.646-10.254-1.646h-24.42v36.565c0 4.956 0.228 7.972 0.652 9.031 0.482 1.073 1.271 1.936 2.256 2.497l0.026 0.014c1.092 0.636 3.13 0.978 6.195 0.978h18.812c6.325 0 10.841-0.456 13.71-1.369 2.902-0.897 5.608-2.559 8.2-5.135 3.358-3.342 6.847-8.477 10.449-15.275h3.277l-9.618 27.827h-85.584v-3h3.88c2.673 0 5.168-0.668 7.515-1.842 1.637-0.828 2.879-2.235 3.474-3.945l0.015-0.049c0.668-1.761 0.978-5.347 0.978-10.726v-72.2c0-7.059-0.717-11.379-2.119-13.009-1.956-2.233-5.265-3.293-9.863-3.293h-3.896v-2.983h85.6l1.255 24.289h-3.179c-1.174-5.787-2.494-9.846-3.863-12.063-1.48-2.249-3.581-3.982-6.058-4.974l-0.088-0.031c-2.217-0.782-6.048-1.174-11.623-1.174z"></path>
<path fill="#fff" d="M3583.433 994.011h-29.718l-37.494-51.937c-2.82 0.082-5.086 0.163-6.879 0.163h-2.25c-0.782-0.082-1.728-0.13-2.51-0.163v32.277c0 6.977 0.75 11.264 2.25 12.992 2.021 2.462 5.184 3.668 9.373 3.668h4.32v3h-47.617v-3h4.222c4.727 0 7.988-1.549 10.026-4.679 1.223-1.695 1.793-5.673 1.793-11.982v-71.793c0-6.977-0.75-11.346-2.331-13.025-2.119-2.38-5.298-3.586-9.488-3.586h-4.222v-2.983h40.493c11.819 0 20.491 0.815 26.050 2.608 5.608 1.663 10.384 4.842 14.231 9.455 3.945 4.564 5.934 10.14 5.934 16.497 0 6.798-2.25 12.732-6.733 17.769-4.418 5.037-11.313 8.509-20.703 10.629l23.034 31.886c5.184 7.303 9.667 12.128 13.481 14.508 3.798 2.51 8.721 4.027 14.737 4.695zM3504.566 936.89c1.027 0 1.907 0.049 2.657 0.082h1.858c10.612 0 18.649-2.233 24.029-6.847s8.053-10.515 8.053-17.541c0-6.928-2.201-12.569-6.521-16.872-4.32-4.353-10.107-6.586-17.247-6.586-3.211 0-7.482 0.538-12.829 1.549z"></path>
<path fill="#fff" d="M3650.564 991.011v3h-47.666v-3h3.994c4.548 0 7.857-1.386 9.944-4.108 1.288-1.679 1.989-5.934 1.989-12.552v-71.793c0-5.559-0.359-9.308-1.076-11.085-0.703-1.542-1.862-2.774-3.302-3.55l-0.040-0.020c-2.171-1.206-4.755-1.927-7.506-1.956h-4.003v-2.983h47.65v2.983h-4.027c-4.63 0-7.89 1.337-9.96 4.027-1.369 1.761-2.038 5.966-2.038 12.585v71.793c0 5.624 0.408 9.325 1.060 11.15 0.751 1.524 1.938 2.737 3.397 3.501l0.043 0.020c2.131 1.25 4.694 1.989 7.429 1.989 0.025 0 0.049 0 0.074 0h-0.004zM3706.478 889.012v43.868h24.338c6.358 0 10.629-0.945 12.699-2.836 2.853-2.527 4.467-6.945 4.776-13.253h3.032v38.602h-3.032c-0.766-5.38-1.516-8.819-2.282-10.368-1.111-1.959-2.752-3.505-4.728-4.471l-0.064-0.028c-2.217-1.060-5.689-1.646-10.4-1.646h-24.338v36.565c0 4.956 0.212 7.972 0.603 9.031 0.483 1.086 1.293 1.953 2.303 2.497l0.028 0.014c1.060 0.636 3.179 0.978 6.227 0.978h18.828c6.292 0 10.808-0.456 13.628-1.369 3.237-1.083 5.999-2.846 8.228-5.131l0.004-0.004c3.374-3.342 6.847-8.477 10.4-15.275h3.26l-9.536 27.827h-85.665v-3h3.929c2.657 0 5.135-0.668 7.482-1.842 1.64-0.84 2.892-2.241 3.521-3.944l0.016-0.050c0.685-1.761 0.978-5.347 0.978-10.726v-72.2c0-7.059-0.701-11.379-2.119-13.009-2.005-2.233-5.233-3.293-9.879-3.293h-3.929v-2.983h85.665l1.174 24.289h-3.114c-1.157-5.787-2.478-9.846-3.896-12.063-1.496-2.24-3.598-3.97-6.073-4.973l-0.089-0.032c-2.168-0.782-5.999-1.174-11.542-1.174z"></path>
</svg>
