<!-- Generated by IcoMoon.io -->
<svg version="1.1" xmlns="http://www.w3.org/2000/svg" width="1024" height="1024" viewBox="0 0 1024 1024">
<title></title>
<g id="icomoon-ignore">
</g>
<path d="M931.062 317.056c-3.924-5.672-9.165-10.307-15.272-13.51-6.111-3.203-12.902-4.877-19.8-4.879h-583.125l-49.238-118.187c-6.456-15.564-17.388-28.86-31.41-38.203s-30.503-14.312-47.353-14.277h-99.542v85.334h99.542l202.41 485.76c3.242 7.773 8.711 14.41 15.719 19.079s15.241 7.163 23.662 7.159h341.333c17.794 0 33.708-11.050 39.978-27.648l128-341.332c2.42-6.459 3.24-13.408 2.383-20.251s-3.356-13.379-7.289-19.045zM738.424 640h-283.309l-106.666-256h485.975l-96 256z"></path>
<path d="M447.99 896c35.347 0 64-28.653 64-64s-28.653-64-64-64c-35.346 0-64 28.653-64 64s28.654 64 64 64z"></path>
<path d="M746.658 896c35.342 0 64-28.653 64-64s-28.658-64-64-64c-35.347 0-64 28.653-64 64s28.653 64 64 64z"></path>
</svg>
