<!-- Generated by IcoMoon.io -->
<svg version="1.1" xmlns="http://www.w3.org/2000/svg" width="3531" height="1024" viewBox="0 0 3531 1024">
<title></title>
<g id="icomoon-ignore">
</g>
<path fill="#fff" opacity="0.94902" d="M764.113 29.087c-29.694-0.072-62.859 3.387-98.832 12.538 0 0-184.453 45.777-387.755 235.615 0 0-96.939 98.285-165.604 224.844 0 0-71.358 131.945-82.129 242.347 0 0-10.771 123.866 59.24 187.146 0 0 80.782 74.051 257.157 59.24 0 0 110.403-13.464 230.23-88.861 0 0 57.894-37.698 95.592-72.704 0 0-17.503 63.28 8.078 109.056 0 0 24.235 43.084 79.436 52.509 0 0 40.391 8.078 98.285-13.464 0 0 36.352-16.156 60.587-28.274 0 0 49.816-26.927 98.285-64.626 0 0-9.425 37.698 12.117 70.011 0 0 25.581 36.352 72.704 40.391 0 0 126.559 9.425 302.934-207.341l-123.866 199.263 113.095-1.346 98.285-169.643c0 0 102.324-175.028 123.866-196.57 0 0 52.509-70.011 131.945-86.168l52.509 4.039c0 0 21.542 10.771 21.542 35.006l-39.045-6.732c0 0-22.888 2.693-35.006 26.927 0 0-10.771 22.888-5.385 45.777 0 0 6.732 18.849 24.235 25.581l12.117 4.039 39.045-5.385c0 0 68.665-25.581 162.911-144.062l-21.542 39.045-79.436 135.984-92.9 164.257c0 0-26.927 53.855-14.81 86.168 0 0 12.117 30.967 52.509 39.045l87.514-6.732c0 0 49.816-14.81 90.207-49.816l57.894-47.123c0 0 70.011-59.24 133.291-129.252l-4.039 5.385c0 0-55.201 100.978-64.626 134.637 0 0-21.542 71.358 28.274 99.632l56.548 5.385c0 0 47.123-6.732 94.246-40.391l76.743-65.972c0 0 65.972-61.933 100.978-106.363 0 0-17.503 40.391-21.542 70.011 0 0-13.464 94.246 74.051 131.945l82.129 6.732c0 0 32.313-2.693 82.129-20.196 0 0 115.788-37.698 278.699-187.146 0 0 82.129-75.397 140.023-142.716l-204.649 343.325h100.978l75.397-126.559 96.939-157.526c0 0 55.201-87.514 156.179-144.062 0 0 40.391-24.235 71.358-29.62 0 0 32.313-6.732 39.045 9.425 0 0-45.777-9.425-56.548 37.698 0 0-10.771 47.123 26.927 61.933 0 0 28.274 9.425 51.162-6.732 0 0 20.196-14.81 26.927-43.084 0 0 5.385-28.274-8.078-48.469 0 0-16.156-24.235-53.855-26.927 0 0-41.738-1.346-125.213 53.855 0 0-61.933 40.391-87.514 65.972l68.665-117.134h-102.324c0 0-96.939 164.257-267.928 305.627 0 0-166.95 135.984-261.196 140.023 0 0-91.553 6.732-100.978-63.28 0 0-5.385-41.738 18.849-100.978 0 0 56.548 5.385 131.945-18.849 0 0 71.358-22.888 130.598-63.28 0 0 63.28-43.084 86.168-88.861 0 0 26.927-51.162-4.039-94.246 0 0-56.548-55.201-179.068-4.039 0 0-126.559 52.509-220.805 177.721l-26.927 40.391-67.319 78.090-68.665 68.665c0 0-83.475 82.129-125.213 57.894 0 0-16.156-10.771-16.156-36.352 0 0 0-25.581 18.849-56.548l195.224-339.286h-87.514c0 0-48.469 79.436-105.017 154.833 0 0-110.403 146.755-230.23 231.576 0 0-82.129 63.28-127.905 41.738 0 0-20.196-9.425-18.849-35.006 0 0 1.346-28.274 28.274-67.319l191.185-325.822 106.363-1.346 13.464-13.464h-107.71l114.442-203.302-96.939 1.346c0 0-67.319 114.442-118.481 183.107 0 0-94.246 123.866-172.336 157.526 0 0 13.464-17.503 14.81-44.43l-1.346-21.542c0 0-5.385-28.274-32.313-41.738l-24.235-6.732-45.777 4.039c0 0-53.855 12.117-103.671 55.201l41.738-70.011h-96.939c0 0-87.514 156.179-201.956 289.47 0 0-149.447 172.336-231.576 152.14 0 0-24.235-12.117-25.581-41.738 0 0 0-29.62 25.581-71.358l195.224-329.861-96.939 1.346-30.967 53.855-20.196 39.045c0 0 4.039-12.117 0-37.698 0 0-8.078-60.587-65.972-72.704l-45.777-4.039c0 0-115.788-1.346-247.733 114.442 0 0-90.207 80.782-158.872 203.302 0 0-137.33 127.905-282.738 156.179 0 0-129.252 26.927-184.453-30.967 0 0-60.587-61.933-60.587-169.643 0 0 1.346-127.905 92.9-301.588 0 0 96.939-142.716 156.179-207.341 0 0 150.794-165.604 306.973-207.341 0 0 127.905-33.659 199.263 24.235 0 0 60.587 49.816 65.972 150.794l35.006-59.24c0 0 44.43-70.011 83.475-110.403 0 0-36.352 16.156-80.782 21.542 0 0-55.201 6.732-82.129-9.425 0 0-59.979-37.885-156.979-38.119zM1092.923 504.862c39.447 0.199 59.745 18.765 59.745 18.765 47.123 43.084 9.425 123.866 9.425 123.866-72.704 150.794-179.068 242.347-179.068 242.347l-64.626 45.777c-100.978 49.816-144.062 14.81-144.062 14.81-35.006-29.62-20.196-96.939-20.196-96.939 9.425-45.777 47.123-111.749 47.123-111.749l72.704-106.363c65.972-72.704 141.369-110.403 141.369-110.403 31.009-15.273 56.922-20.216 77.585-20.112zM2824.905 516.727c1.354-0.017 2.693 0.042 3.997 0.168 0 0 21.542 2.693 30.967 13.464 0 0 9.425 13.464 6.732 40.391 0 0-6.732 71.358-86.168 138.676 0 0-90.207 76.743-195.224 74.051l20.196-41.738c0 0 45.777-88.861 113.095-157.526 0 0 64.432-66.974 106.405-67.487z"></path>
<path fill="#fff" opacity="0.94902" d="M2415.567 366.089c0 0 0 17.503 13.464 30.967 0 0 12.117 12.117 30.967 12.117 0 0 17.503 0 29.62-12.117 0 0 12.117-13.464 12.117-30.967l-12.117-30.967c0 0-13.464-12.117-29.62-12.117 0 0-18.849 0-30.967 12.117 0 0-13.464 12.117-13.464 30.967z"></path>
</svg>
