<!-- Generated by IcoMoon.io -->
<svg version="1.1" xmlns="http://www.w3.org/2000/svg" width="2366" height="1024" viewBox="0 0 2366 1024">
<title></title>
<g id="icomoon-ignore">
</g>
<path fill="#fff" d="M1376.381 972.947h-23.908l-57.517-141.956h26.894l42.593 112.828 42.565-112.828h26.908l-57.536 141.956zM803.368 851.914l-16.442 14.952c-10.447-12.718-23.904-19.423-41.079-19.423-30.641 0-53.055 22.409-53.055 53.783 0 31.394 22.413 56.036 54.54 56.036 14.942 0 27.637-5.985 39.589-14.947l-0.743-39.584h-70.973l13.452-22.428h80.692v70.226c-17.933 15.699-36.608 26.151-61.269 26.151-43.322 0-78.444-31.375-78.444-75.454 0-44.074 34.365-74.706 76.954-74.706 23.904 0 41.836 7.471 56.778 25.394zM837.733 972.947v-141.956h127.752l-17.933 23.161h-84.415v23.923h84.415v23.894h-84.415v47.822h84.415l17.933 23.161h-127.752zM987.898 972.947v-141.956h18.675l94.877 98.629v-98.629h24.656v141.956h-16.433l-97.124-100.858v100.858h-24.651zM1188.109 807.83h26.894l15.699 12.718h-25.408l-17.185-12.718zM1153.748 972.947v-141.956h127.756l-17.923 23.161h-84.434v23.923h84.43v23.894h-84.43v47.822h84.43l17.923 23.161h-127.752zM1445.117 972.947v-141.956h127.742l-17.175 23.161h-85.163v23.923h85.163v23.894h-85.163v47.822h85.163l17.175 23.161h-127.742z"></path>
<path fill="#fff" d="M479.125 60.015h-28.38c-108.329-0.748-378.026 21.67-378.026 180.045 0 79.935 82.925 113.552 152.393 113.552 9.719 0 20.18-0.743 30.641-1.486 51.55-66.492 112.805-125.504 183.040-172.578 67.983-46.331 180.045-109.071 265.208-109.071 20.923 0 47.069 14.942 47.069 38.098 0 76.944-163.617 177.802-229.352 205.448-65.007 27.637-137.47 46.317-207.696 55.274-39.589 56.045-88.906 124.775-88.906 195.749 0 24.642 20.18 38.094 43.336 38.094 94.891 0 237.58-85.906 237.58-191.992 0-19.418-14.942-29.88-32.875-29.88-70.23 0-147.184 67.235-179.302 126.247l-4.481-0.743c20.166-73.963 112.809-144.927 188.263-144.927 32.132 0 58.278 23.904 58.278 56.778 0 26.894-10.461 50.793-21.67 73.954 28.385-14.185 56.778-29.142 84.415-44.827l158.379-189.754c29.884-35.122 102.357-122.528 153.165-122.528 11.209 0 17.923 9.719 17.923 20.166 0 103.105-176.311 218.905-259.236 262.227l-10.461 13.452c30.627-13.452 61.269-29.884 94.877-29.884 16.442 0 33.618 11.209 33.618 29.142 0 10.461-3.738 20.923-9.704 29.142l-92.644 131.48c-1.49 2.233-3.738 5.228-3.738 8.214 0 1.495 2.247 3.733 4.481 3.733 28.394 0 86.658-49.298 108.329-67.978 34.365-62.012 107.586-133.732 183.040-133.732 28.394 0 50.050 18.675 50.050 47.817 0 20.166-7.462 38.098-16.433 55.288 71.721-37.365 141.203-85.172 191.254-148.674l47.074-59.769 47.807 0.743-113.557 146.427c24.656-17.175 56.774-36.598 88.149-36.598 13.452 0 26.908 12.695 26.908 26.137 0 5.981-2.986 11.961-5.985 17.185l-91.896 134.475c-1.486 1.481-2.233 3.738-2.233 5.224 0 3.733 2.99 5.985 5.981 5.985 35.117 0 73.949-37.351 100.848-58.274 42.579-61.255 109.081-135.966 190.506-135.966 26.142 0 47.065 13.452 56.783 37.356l21.656-30.627h47.812l-127.004 175.559c-2.238 2.233-3.738 5.971-3.738 8.971 0 4.481 3.738 5.971 7.471 5.971 49.312 0 163.612-141.194 182.297-188.268-5.981-3.724-8.214-8.219-8.214-14.928 0-18.68 15.685-48.56 38.094-48.56 11.952 0 16.442 14.185 16.442 23.899 0 9.719-2.252 18.675-5.233 28.394 15.69 0 51.55 0 51.55 23.156 0 8.962-3.733 17.175-8.971 23.904l-88.906 129.98c-2.971 3.743-5.971 8.976-5.971 14.199 0 4.495 3.747 6.733 8.219 6.733 51.55 0 105.348-55.293 137.47-91.891 35.846-51.555 91.148-108.329 159.117-108.329 26.894 0 45.579 18.68 52.302 44.079l243.556-321.253 48.56 0.752-333.947 440.767c-5.224 6.738-11.952 15.699-11.952 24.656 0 5.238 3.733 9.723 8.957 9.723 49.312 0 116.552-85.915 142.689-123.266l5.985 2.247c-31.375 56.769-97.11 146.418-170.331 146.418-17.937 0-29.889-14.195-29.889-32.113 0-3.738 0.762-8.219 1.495-11.957-29.127 19.423-59.769 41.098-95.629 41.098-23.156 0-46.312-13.452-46.312-38.86 0-8.214 1.486-17.171 3.733-25.389-36.608 27.642-83.663 59.769-131.49 59.769-16.437 0-30.627-10.471-30.627-27.661 0-15.68 7.471-28.389 16.442-41.084l79.187-112.067c2.238-2.976 5.985-6.714 5.985-9.704 0-5.238-11.218-5.238-14.952-5.238-1.495 0-2.986 0-4.471 0-36.608 65.007-151.674 200.972-231.599 200.972-15.685 0-30.627-11.204-30.627-27.642 0-4.486 0.733-9.709 1.486-14.195-32.875 20.175-67.988 41.836-107.581 41.836-30.623 0-44.827-22.409-44.827-50.050v-1.495c-29.889 20.923-72.468 52.298-110.562 52.298-18.68 0-33.622-12.709-33.622-32.113 0-14.966 7.471-29.142 16.433-41.855l73.968-100.1c2.247-2.99 4.471-6.728 4.471-9.719 0-1.486-0.738-2.99-2.229-2.99-44.831 0-145.689 112.067-171.093 144.946l-143.437 184.521-53.041-0.748 234.576-297.33c-39.589 28.385-82.925 49.303-125.504 71.721-39.603 42.574-93.386 83.673-154.646 83.673-24.656 0-47.069-17.19-47.069-43.341 0-5.971 0.743-12.695 1.486-18.675l-20.166 14.204c-31.37 20.923-71.716 53.036-110.576 53.036-13.438 0-23.161-11.957-23.161-25.394 0-15.685 8.976-29.137 17.19-41.084l87.406-122.528c2.247-2.233 2.99-5.966 2.99-8.962 0-2.99-2.99-5.224-5.981-5.224-36.598 0-106.829 62.002-133.718 83.673l-84.425 113.552h-64.245l106.838-127.752c-23.17 11.952-45.584 23.156-68.74 34.365-55.274 53.036-118.785 101.6-198.725 101.6-61.255 0-103.848-39.579-103.848-100.858 0-56.031 23.17-107.567 53.041-153.893-5.224 0.743-11.195 0.743-16.433 0.743-78.439-0.024-180.045-38.122-180.045-131.508 0-152.398 224.871-194.234 338.438-194.234 32.118 0 63.493 2.976 94.877 7.471l-1.505 5.228zM331.208 343.907c69.473-8.971 138.961-32.132 201.715-64.25 47.817-23.913 185.273-114.309 185.273-178.559 0-5.981-7.471-8.219-11.952-8.219-62.759 0-162.117 69.473-209.934 102.348-62.007 41.841-115.795 91.905-165.102 148.679zM701.768 373.035c55.274-31.375 206.939-150.908 206.939-212.91 0-1.5-1.5-2.99-2.99-2.99-50.050 0-174.064 176.311-203.948 215.9zM954.281 529.18c-2.99-5.224-5.224-10.461-5.224-17.19 0-27.637 25.404-40.332 49.303-42.579 5.224-9.704 11.209-20.166 11.209-31.375 0-10.457-10.461-13.452-18.675-13.452-57.521 0-168.845 106.081-168.845 162.117 0 8.971 5.224 16.437 14.199 16.437 46.312 0 91.882-38.841 118.033-73.959zM1531.027 444.008c0-13.438-8.957-23.156-23.161-23.156-56.036 0-165.864 109.071-165.864 166.612 0 7.466 5.985 14.176 13.452 14.176 56.036 0 175.573-100.096 175.573-157.631zM2005.435 438.784c0-10.461-5.233-23.156-17.937-23.156-57.531 0-159.131 116.543-159.131 169.588 0 9.719 7.466 17.175 17.185 17.175 51.536-0.005 159.883-110.567 159.883-163.607z"></path>
</svg>
