<!-- Generated by IcoMoon.io -->
<svg version="1.1" xmlns="http://www.w3.org/2000/svg" width="5505" height="1024" viewBox="0 0 5505 1024">
<title></title>
<g id="icomoon-ignore">
</g>
<path fill="#fff" d="M5375.568 10.659l-166.298 222.76h-5.137l-166.314-222.76h-129.76l247.326 314.639v231.114h102.586v-231.114l247.406-314.639zM4639 233.418h-295.77v-223.096h-102.298v546.089h102.298v-227.977h295.77v227.977h102.122v-546.089h-102.122zM3202.961 10.659h-95.096v372.893h-2.513l-331.011-372.893h-89.43v545.752h94.824v-374.542h2.081l334.5 374.542h86.646zM2412.315 461.683h-338.789v-133.505h243.181v-94.744h-243.181v-129.456h338.789v-93.319h-441.070v545.752h441.070zM1458.621 420.521h-2.721l-163.689-409.862h-118.302l240.284 545.752h85.125l240.316-545.752h-118.334zM840.562 556.411h102.218v-545.752h-102.218zM271.604 354.153h175.164v95.016c-24.55 8.53-67.969 19.781-138.371 19.781-125.039 0-194.225-62.768-194.225-185.454 0-122.623 69.569-185.566 194.225-185.566 126.912 0 192.048 39.322 228.137 69.249v-109.579c-40.282-32.952-130.721-57.582-228.169-57.582-145.428 0-308.365 59.519-308.365 283.351 0 223.8 162.937 283.415 308.413 283.415 88.454 0 181.021-20.373 238.812-57.022v-250.383h-275.621zM3446.238 283.367c0 223.8 162.841 283.223 308.365 283.223 97.432 0 187.855-24.566 228.153-57.566v-109.547c-36.057 29.879-101.273 69.249-228.185 69.249-124.687 0-194.193-62.72-194.193-185.358 0-122.703 69.505-185.422 194.193-185.422 126.912 0 192.112 39.322 228.185 69.249v-109.595c-40.282-32.952-130.705-57.582-228.153-57.582-145.524 0-308.365 59.519-308.365 283.351zM2223.852 755.805h-84.085v262.642h34.233v-107.339h52.829c39.434 0 90.423-12.915 90.423-79.332 0-69.361-61.391-75.971-93.399-75.971zM2226.829 883.789h-52.829v-100.713h52.829c24.582 0 56.19 9.586 56.19 50.525 0 34.697-22.694 50.189-56.19 50.189zM2483.677 755.805l-102.698 262.642h35.353l26.407-70.114h121.678l25.686 70.114h36.857l-100.121-262.642zM2452.405 921.062l34.969-90.759c5.585-14.756 10.803-30.264 16.388-45.019h0.736c5.217 14.756 10.067 30.264 15.636 45.019l34.969 90.759zM2902.406 826.239c0-48.3-35.737-70.45-81.108-70.45h-91.207v262.642h34.249v-118.798h57.326l54.686 118.798h40.922l-63.232-125.055c13.411-4.417 48.364-16.58 48.364-67.137zM2818.289 872.346h-53.949v-89.27h50.237c15.268 0 53.597 1.84 53.597 45.771 0 20.309-11.171 43.499-49.884 43.499zM3025.636 1018.447h34.217v-262.642h-34.217zM3302.186 881.948l-47.66-20.661c-17.076-7.394-34.921-15.524-34.921-41.354 0-23.99 13.699-42.395 46.444-42.395 18.997 0 41.338 7.010 47.676 31.688l33.464-11.043c-12.643-35.033-43.531-47.932-81.124-47.932-37.897 0-82.981 20.645-82.981 71.97 0 27.287 14.548 46.076 39.466 57.518l64 29.495c9.682 4.433 27.895 13.299 27.895 41.69 0 22.118-17.844 45.739-51.325 45.739-35.385 0-50.253-22.15-55.070-40.586l-33.112 12.147c5.569 19.589 27.111 55.758 85.189 55.758 75.539 0 90.807-49.084 90.807-73.81 0.016-45.339-32.36-61.215-48.748-68.225z"></path>
</svg>
