<!-- Generated by IcoMoon.io -->
<svg version="1.1" xmlns="http://www.w3.org/2000/svg" width="1024" height="1024" viewBox="0 0 1024 1024">
<title></title>
<g id="icomoon-ignore">
</g>
<path d="M741.548 938.666c-174.197-0.23-341.193-69.53-464.368-192.704s-192.474-290.17-192.7-464.365c0-52.053 20.678-101.974 57.485-138.781s86.728-57.485 138.781-57.485c11.023-0.084 22.027 0.916 32.853 2.986 10.467 1.549 20.756 4.122 30.72 7.68 7.008 2.459 13.253 6.705 18.117 12.317s8.179 12.397 9.617 19.683l58.453 256c1.576 6.949 1.386 14.182-0.552 21.039s-5.562 13.119-10.541 18.215c-5.547 5.973-5.974 6.4-58.454 33.706 42.027 92.197 115.763 166.236 207.787 208.641 27.733-52.907 28.16-53.334 34.133-58.881 5.096-4.979 11.359-8.604 18.215-10.541s14.090-2.127 21.036-0.552l256 58.454c7.053 1.638 13.574 5.043 18.95 9.894s9.427 10.989 11.77 17.837c3.603 10.131 6.317 20.55 8.109 31.149 1.715 10.72 2.573 21.568 2.56 32.429-0.787 51.827-22.048 101.242-59.136 137.453-37.094 36.211-87.002 56.282-138.835 55.827zM280.747 170.663c-29.387 0.113-57.538 11.836-78.317 32.616s-32.504 48.931-32.616 78.317c0.113 151.599 60.385 296.956 167.581 404.154 107.196 107.194 252.553 167.469 404.153 167.578 29.382-0.109 57.536-11.834 78.317-32.614s32.506-48.928 32.614-78.317v-14.080l-197.971-45.651-12.378 23.462c-19.197 37.12-33.277 64-69.117 49.498-70.704-25.312-134.883-66.048-187.873-119.261s-93.462-117.56-118.474-188.369c-15.36-33.28 13.653-48.64 50.347-67.84l23.466-11.52-45.653-197.973h-14.080z"></path>
</svg>
