<!-- Generated by IcoMoon.io -->
<svg version="1.1" xmlns="http://www.w3.org/2000/svg" width="1024" height="1024" viewBox="0 0 1024 1024">
<title></title>
<g id="icomoon-ignore">
</g>
<path d="M896.036 810.7l-219.904-219.904c40.653-61.784 56.934-136.456 45.694-209.557s-49.203-139.432-106.543-186.15c-57.339-46.718-129.969-70.499-203.836-66.739-73.865 3.76-143.708 34.793-196.006 87.091s-83.332 122.141-87.091 196.006c-3.76 73.867 20.021 146.497 66.738 203.836s113.049 95.302 186.15 106.543c73.101 11.241 147.773-5.041 209.562-45.694l219.904 219.904 85.332-85.336zM213.369 426.703c0-117.632 95.702-213.334 213.334-213.334s213.334 95.702 213.334 213.334c0 117.632-95.702 213.334-213.334 213.334s-213.334-95.702-213.334-213.334z"></path>
</svg>
